<svg xmlns="http://www.w3.org/2000/svg" width="287.47" height="70.138" viewBox="0 0 287.47 70.138">
  <g id="Logo_Michel" data-name="Logo Michel" transform="translate(-50.802 -70.386)">
    <g id="Group_18" data-name="Group 18" transform="translate(74.015 70.986)">
      <path id="Path_4" data-name="Path 4" d="M166.843,94.026l-.012,0c-.333-.87-.732-1.856-1.122-2.673a34.737,34.737,0,0,0-65.569,8.962q-.135.778-.236,1.565c-.106.837-.192,1.682-.237,2.536-.034.627-.054,1.258-.054,1.893a35.156,35.156,0,0,0,.178,3.533,34.738,34.738,0,1,0,67.052-15.82Zm-35.114,37.861a25.882,25.882,0,0,1-25.622-22.258,26.184,26.184,0,0,1-.256-3.612c0-.569.025-1.131.06-1.691a25.877,25.877,0,0,1,49.106-9.6,25.509,25.509,0,0,1,1.11,2.665,25.877,25.877,0,0,1-24.4,34.494Z" transform="translate(-99.613 -71.575)" fill="#4f585e" stroke="#4f585e" stroke-width="0.14"/>
    </g>
    <g id="Group_21" data-name="Group 21" transform="translate(50.872 70.454)">
      <g id="Group_19" data-name="Group 19" transform="translate(0 23.674)">
        <path id="Path_5" data-name="Path 5" d="M120.723,138.491v7.938q4.27-.243,8.371-.8V138.3Q125.025,138.544,120.723,138.491Z" transform="translate(-87.557 -129.758)" fill="#008fdb" stroke="#008fdb" stroke-width="0.14"/>
        <path id="Path_6" data-name="Path 6" d="M141.4,137.3v7.233q3.441-.506,6.737-1.2v-6.745Q144.844,137.04,141.4,137.3Z" transform="translate(-98.419 -128.861)" fill="#008fdb" stroke="#008fdb" stroke-width="0.14"/>
        <path id="Path_7" data-name="Path 7" d="M97.077,137.058v8.759a94.848,94.848,0,0,0,9.779.034v-8.028A87.121,87.121,0,0,1,97.077,137.058Z" transform="translate(-75.138 -129.108)" fill="#008fdb" stroke="#008fdb" stroke-width="0.14"/>
        <path id="Path_8" data-name="Path 8" d="M73.344,131.64v9.651a58.89,58.89,0,0,0,9.82,1.573V134A60.66,60.66,0,0,1,73.344,131.64Z" transform="translate(-62.674 -126.263)" fill="#008fdb" stroke="#008fdb" stroke-width="0.14"/>
        <path id="Path_9" data-name="Path 9" d="M207.441,126.981q1.608-.739,3.119-1.495v-4.641q-1.553.616-3.119,1.2Z" transform="translate(-133.101 -120.593)" fill="#008fdb" stroke="#008fdb" stroke-width="0.14"/>
        <path id="Path_10" data-name="Path 10" d="M197.08,125.659V131q1.781-.718,3.471-1.464v-5.066Q198.827,125.087,197.08,125.659Z" transform="translate(-127.659 -122.498)" fill="#008fdb" stroke="#008fdb" stroke-width="0.14"/>
        <path id="Path_11" data-name="Path 11" d="M60.094,134.945V125.18a36.556,36.556,0,0,1-9.222-4.865V131.26A48.513,48.513,0,0,0,60.094,134.945Z" transform="translate(-50.872 -120.315)" fill="#008fdb" stroke="#008fdb" stroke-width="0.14"/>
        <path id="Path_12" data-name="Path 12" d="M158.643,135.093v6.633q2.794-.62,5.466-1.355V134.12C162.315,134.486,160.5,134.814,158.643,135.093Z" transform="translate(-107.472 -127.565)" fill="#008fdb" stroke="#008fdb" stroke-width="0.14"/>
        <path id="Path_13" data-name="Path 13" d="M185.985,129.072v5.73q1.956-.679,3.819-1.4v-5.45Q187.913,128.541,185.985,129.072Z" transform="translate(-121.832 -124.324)" fill="#008fdb" stroke="#008fdb" stroke-width="0.14"/>
        <path id="Path_14" data-name="Path 14" d="M173.205,132.253v6.152q2.362-.679,4.619-1.43v-5.827Q175.544,131.747,173.205,132.253Z" transform="translate(-115.12 -126.004)" fill="#008fdb" stroke="#008fdb" stroke-width="0.14"/>
      </g>
      <g id="Group_20" data-name="Group 20" transform="translate(90.867)">
        <path id="Path_15" data-name="Path 15" d="M457.264,72.551l.007,2.986q1.349.075,2.711.166l-.007-2.87Q458.637,72.685,457.264,72.551Z" transform="translate(-355.172 -71.556)" fill="#008fdb" stroke="#008fdb" stroke-width="0.14"/>
        <path id="Path_16" data-name="Path 16" d="M466.011,73.492l.006,2.807q1.214.088,2.44.189l-.007-2.694Q467.247,73.638,466.011,73.492Z" transform="translate(-359.766 -72.05)" fill="#008fdb" stroke="#008fdb" stroke-width="0.14"/>
        <path id="Path_17" data-name="Path 17" d="M448.23,71.761l.007,3.157c.944.037,1.891.076,2.847.124L451.077,72Q449.67,71.872,448.23,71.761Z" transform="translate(-350.427 -71.141)" fill="#008fdb" stroke="#008fdb" stroke-width="0.14"/>
        <path id="Path_18" data-name="Path 18" d="M474.186,74.534l.006,2.625c.721.064,1.443.129,2.17.2l-.006-2.517Q475.285,74.684,474.186,74.534Z" transform="translate(-364.059 -72.597)" fill="#008fdb" stroke="#008fdb" stroke-width="0.14"/>
        <path id="Path_19" data-name="Path 19" d="M438.91,71.14l.008,3.318c.989.02,1.98.043,2.982.076l-.008-3.206Q440.417,71.225,438.91,71.14Z" transform="translate(-345.533 -70.814)" fill="#008fdb" stroke="#008fdb" stroke-width="0.14"/>
        <path id="Path_20" data-name="Path 20" d="M419.477,70.483l0,3.618q1.615-.029,3.253-.035l0-3.52Q421.12,70.5,419.477,70.483Z" transform="translate(-335.327 -70.469)" fill="#008fdb" stroke="#008fdb" stroke-width="0.14"/>
        <path id="Path_21" data-name="Path 21" d="M429.366,70.708l0,3.468c1.023,0,2.057.014,3.094.029l-.008-3.367Q430.927,70.762,429.366,70.708Z" transform="translate(-340.52 -70.588)" fill="#008fdb" stroke="#008fdb" stroke-width="0.14"/>
        <path id="Path_22" data-name="Path 22" d="M481.794,75.642l.006,2.445c.677.069,1.352.137,2.034.213l-.006-2.334Q482.826,75.8,481.794,75.642Z" transform="translate(-368.055 -73.179)" fill="#008fdb" stroke="#008fdb" stroke-width="0.14"/>
        <path id="Path_23" data-name="Path 23" d="M409.3,70.469l0,3.751q1.68-.065,3.389-.105l0-3.658Q411.013,70.449,409.3,70.469Z" transform="translate(-329.983 -70.454)" fill="#008fdb" stroke="#008fdb" stroke-width="0.14"/>
        <path id="Path_24" data-name="Path 24" d="M514.5,82l0,1.5,1.113.184,0-1.412C515.246,82.182,514.877,82.092,514.5,82Z" transform="translate(-385.231 -76.52)" fill="#008fdb" stroke="#008fdb" stroke-width="0.14"/>
        <path id="Path_25" data-name="Path 25" d="M519.882,83.318l0,1.295c.322.056.65.119.973.177l0-1.223Q520.378,83.442,519.882,83.318Z" transform="translate(-388.058 -77.21)" fill="#008fdb" stroke="#008fdb" stroke-width="0.14"/>
        <path id="Path_26" data-name="Path 26" d="M508.783,80.694l0,1.686c.424.065.846.126,1.272.193l0-1.593C509.637,80.885,509.214,80.789,508.783,80.694Z" transform="translate(-382.229 -75.832)" fill="#008fdb" stroke="#008fdb" stroke-width="0.14"/>
        <path id="Path_27" data-name="Path 27" d="M502.684,79.394l0,1.871c.482.068.97.146,1.454.217l0-1.783Q503.422,79.546,502.684,79.394Z" transform="translate(-379.026 -75.149)" fill="#008fdb" stroke="#008fdb" stroke-width="0.14"/>
        <path id="Path_28" data-name="Path 28" d="M489.114,76.836l.005,2.26c.632.074,1.261.143,1.9.222l-.005-2.147Q490.078,77,489.114,76.836Z" transform="translate(-371.899 -73.806)" fill="#008fdb" stroke="#008fdb" stroke-width="0.14"/>
        <path id="Path_29" data-name="Path 29" d="M496.149,78.105l0,2.067q.828.108,1.661.221l0-1.967Q496.992,78.265,496.149,78.105Z" transform="translate(-375.594 -74.472)" fill="#008fdb" stroke="#008fdb" stroke-width="0.14"/>
        <path id="Path_30" data-name="Path 30" d="M366.888,72.679l0,4.158c1.248-.159,2.518-.306,3.8-.447l0-4.1Q368.8,72.462,366.888,72.679Z" transform="translate(-307.707 -71.416)" fill="#008fdb" stroke="#008fdb" stroke-width="0.14"/>
        <path id="Path_31" data-name="Path 31" d="M281.2,91.2l.009,4.258c1.1-.374,2.236-.746,3.4-1.117l0-4.284Q282.9,90.612,281.2,91.2Z" transform="translate(-262.702 -80.751)" fill="#008fdb" stroke="#008fdb" stroke-width="0.14"/>
        <path id="Path_32" data-name="Path 32" d="M291.4,87.852l0,4.292c1.19-.369,2.405-.737,3.659-1.1l-.005-4.308Q293.234,87.272,291.4,87.852Z" transform="translate(-268.062 -79.005)" fill="#008fdb" stroke="#008fdb" stroke-width="0.14"/>
        <path id="Path_33" data-name="Path 33" d="M312.883,81.974l0,4.329q1.794-.455,3.659-.893l0-4.328Q314.719,81.507,312.883,81.974Z" transform="translate(-279.344 -76.036)" fill="#008fdb" stroke="#008fdb" stroke-width="0.14"/>
        <path id="Path_34" data-name="Path 34" d="M302.14,84.749l0,4.317q1.79-.5,3.659-.994l0-4.325Q303.975,84.226,302.14,84.749Z" transform="translate(-273.702 -77.436)" fill="#008fdb" stroke="#008fdb" stroke-width="0.14"/>
        <path id="Path_35" data-name="Path 35" d="M251.84,102.535l.009,4.168q1.474-.645,3.115-1.327l-.01-4.18Q253.4,101.848,251.84,102.535Z" transform="translate(-247.285 -86.6)" fill="#008fdb" stroke="#008fdb" stroke-width="0.14"/>
        <path id="Path_36" data-name="Path 36" d="M271.028,94.779l.01,4.225q1.635-.607,3.386-1.22l-.01-4.249Q272.724,94.137,271.028,94.779Z" transform="translate(-257.363 -82.576)" fill="#008fdb" stroke="#008fdb" stroke-width="0.14"/>
        <path id="Path_37" data-name="Path 37" d="M261.435,98.563l.01,4.19q1.493-.6,3.115-1.22l-.01-4.213Q262.994,97.923,261.435,98.563Z" transform="translate(-252.324 -84.563)" fill="#008fdb" stroke="#008fdb" stroke-width="0.14"/>
        <path id="Path_38" data-name="Path 38" d="M345.687,75.44l0,4.275c1.2-.21,2.421-.415,3.66-.611l0-4.238Q347.526,75.133,345.687,75.44Z" transform="translate(-296.573 -72.771)" fill="#008fdb" stroke="#008fdb" stroke-width="0.14"/>
        <path id="Path_39" data-name="Path 39" d="M245.371,109.535l-.01-4.165q-1.556.7-3.115,1.443l.009,4.165C243.208,110.523,244.252,110.038,245.371,109.535Z" transform="translate(-242.247 -88.791)" fill="#008fdb" stroke="#008fdb" stroke-width="0.14"/>
        <path id="Path_40" data-name="Path 40" d="M377.925,71.712l0,4.078q1.744-.18,3.524-.339l0-4.013Q379.7,71.558,377.925,71.712Z" transform="translate(-313.504 -70.972)" fill="#008fdb" stroke="#008fdb" stroke-width="0.14"/>
        <path id="Path_41" data-name="Path 41" d="M323.625,79.486l0,4.327q1.864-.424,3.8-.825l0-4.315Q325.531,79.059,323.625,79.486Z" transform="translate(-284.986 -74.771)" fill="#008fdb" stroke="#008fdb" stroke-width="0.14"/>
        <path id="Path_42" data-name="Path 42" d="M388.385,71.04l0,3.985q1.744-.142,3.525-.259l0-3.91Q390.161,70.932,388.385,71.04Z" transform="translate(-318.997 -70.665)" fill="#008fdb" stroke="#008fdb" stroke-width="0.14"/>
        <path id="Path_43" data-name="Path 43" d="M334.66,77.292l0,4.309q1.868-.375,3.795-.726l0-4.284Q336.565,76.921,334.66,77.292Z" transform="translate(-290.781 -73.677)" fill="#008fdb" stroke="#008fdb" stroke-width="0.14"/>
        <path id="Path_44" data-name="Path 44" d="M398.843,70.628l0,3.875q1.746-.1,3.524-.184l0-3.787Q400.619,70.565,398.843,70.628Z" transform="translate(-324.49 -70.495)" fill="#008fdb" stroke="#008fdb" stroke-width="0.14"/>
        <path id="Path_45" data-name="Path 45" d="M356.431,73.926l0,4.225q1.739-.262,3.523-.5l0-4.182Q358.2,73.68,356.431,73.926Z" transform="translate(-302.215 -72.037)" fill="#008fdb" stroke="#008fdb" stroke-width="0.14"/>
      </g>
    </g>
    <g id="Group_22" data-name="Group 22" transform="translate(198.057 127.523)">
      <path id="Path_46" data-name="Path 46" d="M360.86,199.927v-8.912h1.87v8.912Z" transform="translate(-360.86 -190.84)" fill="#4f585e" stroke="#4f585e" stroke-width="0.14"/>
      <path id="Path_47" data-name="Path 47" d="M377.094,191.015v8.912h-1.8l-4.625-5.934v5.934h-1.619v-8.912h1.684l4.748,6.066v-6.066Z" transform="translate(-365.159 -190.84)" fill="#4f585e" stroke="#4f585e" stroke-width="0.14"/>
      <path id="Path_48" data-name="Path 48" d="M388.751,191.015h7.59V192.4h-2.847v7.523h-1.9V192.4h-2.844Z" transform="translate(-375.508 -190.84)" fill="#4f585e" stroke="#4f585e" stroke-width="0.14"/>
      <path id="Path_49" data-name="Path 49" d="M413.351,199.927H407.6v-8.912h5.585V192.4H409.5v2.245h2.7v1.389h-2.7v2.5h3.849Z" transform="translate(-385.409 -190.84)" fill="#4f585e" stroke="#4f585e" stroke-width="0.14"/>
      <path id="Path_50" data-name="Path 50" d="M428.01,200.061l-2.389-3.969h-.845v3.835h-1.9v-8.912h2.594c2.446,0,3.555,1.054,3.555,2.445a2.524,2.524,0,0,1-1.592,2.191l2.716,4.275Zm-2.456-5.252c1.081,0,1.616-.6,1.616-1.255,0-.67-.494-1.257-1.616-1.257h-.778v2.512Z" transform="translate(-393.432 -190.84)" fill="#4f585e" stroke="#4f585e" stroke-width="0.14"/>
      <path id="Path_51" data-name="Path 51" d="M448.625,191.015v8.912h-1.8l-4.625-5.934v5.934h-1.618v-8.912h1.689l4.743,6.066v-6.066Z" transform="translate(-402.727 -190.84)" fill="#4f585e" stroke="#4f585e" stroke-width="0.14"/>
      <path id="Path_52" data-name="Path 52" d="M467.546,199.927H461.8v-8.912h5.584V192.4H463.7v2.245h2.7v1.389h-2.7v2.5h3.848Z" transform="translate(-413.873 -190.84)" fill="#4f585e" stroke="#4f585e" stroke-width="0.14"/>
      <path id="Path_53" data-name="Path 53" d="M475.561,191.015h7.589V192.4H480.3v7.523h-1.9V192.4h-2.846Z" transform="translate(-421.1 -190.84)" fill="#4f585e" stroke="#4f585e" stroke-width="0.14"/>
      <path id="Path_54" data-name="Path 54" d="M493.9,197.441v-1.055h3.42V192.9h1.19v3.488h3.406v1.055h-3.406v3.475h-1.19v-3.475Z" transform="translate(-430.734 -191.829)" fill="#4f585e" stroke="#4f585e" stroke-width="0.14"/>
      <path id="Path_55" data-name="Path 55" d="M517.035,198.517c.721,0,1.376-.348,1.376-.963,0-.721-.816-1.122-1.779-1.723-.854-.536-2.07-1.191-2.07-2.779a2.608,2.608,0,0,1,2.794-2.406,5.481,5.481,0,0,1,2.565.534l-.535,1.27a3.633,3.633,0,0,0-1.591-.413c-.627,0-1.322.2-1.322.786,0,.748.857,1.11,1.725,1.684.815.536,2.2,1.391,2.2,2.673,0,1.738-1.633,2.726-3.394,2.726a5.263,5.263,0,0,1-2.7-.626l.533-1.257A4.638,4.638,0,0,0,517.035,198.517Z" transform="translate(-441.45 -190.646)" fill="#4f585e" stroke="#4f585e" stroke-width="0.14"/>
      <path id="Path_56" data-name="Path 56" d="M539.08,195.282a4.577,4.577,0,0,1-4.707,4.625,4.488,4.488,0,0,1-4.7-4.625,4.6,4.6,0,0,1,4.7-4.636A4.465,4.465,0,0,1,539.08,195.282Zm-7.416,0c0,1.779,1.043,3.248,2.709,3.248s2.714-1.482,2.714-3.248-1.041-3.26-2.714-3.26S531.664,193.438,531.664,195.282Z" transform="translate(-449.518 -190.646)" fill="#4f585e" stroke="#4f585e" stroke-width="0.14"/>
      <path id="Path_57" data-name="Path 57" d="M552.634,199.927v-8.912h5.318V192.4h-3.419v2.245h2.4v1.389h-2.4v3.889Z" transform="translate(-461.578 -190.84)" fill="#4f585e" stroke="#4f585e" stroke-width="0.14"/>
      <path id="Path_58" data-name="Path 58" d="M565.215,191.015H572.8V192.4h-2.846v7.523h-1.9V192.4h-2.845Z" transform="translate(-468.185 -190.84)" fill="#4f585e" stroke="#4f585e" stroke-width="0.14"/>
      <path id="Path_59" data-name="Path 59" d="M586.577,200.006h-1.161l-2.928-8.991h1.872l1.924,6.092,1.282-3.527-.828-2.564h1.884l1.83,5.9,2.017-5.9h1.645l-3.289,8.991h-1.163l-1.455-4.477Z" transform="translate(-477.257 -190.84)" fill="#4f585e" stroke="#4f585e" stroke-width="0.14"/>
      <path id="Path_60" data-name="Path 60" d="M607.573,199.894h-1.7l3.636-8.941h1.3l3.286,8.941h-1.953l-.721-2h-3.086Zm2.352-6.188-1.121,2.939h2.179Z" transform="translate(-489.54 -190.807)" fill="#4f585e" stroke="#4f585e" stroke-width="0.14"/>
      <path id="Path_61" data-name="Path 61" d="M631.211,200.061l-2.393-3.969h-.841v3.835h-1.9v-8.912h2.593c2.446,0,3.556,1.054,3.556,2.445a2.528,2.528,0,0,1-1.589,2.191l2.712,4.275Zm-2.458-5.252c1.08,0,1.616-.6,1.616-1.255,0-.67-.495-1.257-1.616-1.257h-.775v2.512Z" transform="translate(-500.149 -190.84)" fill="#4f585e" stroke="#4f585e" stroke-width="0.14"/>
      <path id="Path_62" data-name="Path 62" d="M649.639,199.927H643.9v-8.912h5.583V192.4h-3.688v2.245h2.7v1.389h-2.7v2.5h3.848Z" transform="translate(-509.508 -190.84)" fill="#4f585e" stroke="#4f585e" stroke-width="0.14"/>
    </g>
    <g id="Group_23" data-name="Group 23" transform="translate(148.5 94.724)">
      <rect id="Rectangle_40" data-name="Rectangle 40" width="8.352" height="28.219" transform="translate(46.18 0.197)" fill="#008fdb" stroke="#008fdb" stroke-width="0.14"/>
      <path id="Path_63" data-name="Path 63" d="M409.245,128.453v-6.883l-28.672.006.033,28.328h28.639v-7.4H388.926V128.453Z" transform="translate(-321.656 -121.569)" fill="#008fdb" stroke="#008fdb" stroke-width="0.14"/>
      <path id="Path_64" data-name="Path 64" d="M603.986,142.544v-20.9h-8.355l.034,28.3H624.3v-7.4Z" transform="translate(-434.602 -121.607)" fill="#008fdb" stroke="#008fdb" stroke-width="0.14"/>
      <path id="Path_65" data-name="Path 65" d="M551.2,138.885v-6.434H534.086V128.68H554.4v-7.111H525.672V149.9H554.4v-7.185H534.086v-3.834Z" transform="translate(-397.86 -121.569)" fill="#008fdb" stroke="#008fdb" stroke-width="0.14"/>
      <path id="Path_66" data-name="Path 66" d="M256.488,121.569v28.416h8.371V128.453h8.776v21.532h8.355V128.453h8.036v21.532h8.359v-28.41Z" transform="translate(-256.486 -121.569)" fill="#008fdb" stroke="#008fdb" stroke-width="0.14"/>
      <path id="Path_67" data-name="Path 67" d="M472.083,121.642v10.652H456.646V121.642h-8.357v28.381h8.357v-10.8h15.437v10.8h8.353V121.642Z" transform="translate(-357.219 -121.607)" fill="#008fdb" stroke="#008fdb" stroke-width="0.14"/>
    </g>
  </g>
</svg>