<svg xmlns="http://www.w3.org/2000/svg" width="298.17" height="72.64" viewBox="0 0 298.17 72.64">
  <g id="Logo_Michel" data-name="Logo Michel" transform="translate(-50.872 -70.455)">
    <g id="Group_18" data-name="Group 18" transform="translate(74.888 71.007)">
      <path id="Path_4" data-name="Path 4" d="M169.38,94.873l-.013,0c-.345-.9-.76-1.926-1.165-2.774a36.047,36.047,0,0,0-68.043,9.3q-.14.807-.244,1.624c-.11.869-.2,1.745-.246,2.632-.035.651-.056,1.305-.056,1.964a36.48,36.48,0,0,0,.185,3.666A36.049,36.049,0,1,0,169.38,94.873Zm-36.439,39.289a26.859,26.859,0,0,1-26.588-23.1,27.174,27.174,0,0,1-.266-3.748c0-.59.026-1.174.063-1.755a26.853,26.853,0,0,1,50.959-9.96,26.484,26.484,0,0,1,1.152,2.766,26.853,26.853,0,0,1-25.32,35.8Z" transform="translate(-99.613 -71.575)" fill="#f8f9f4"/>
    </g>
    <g id="Group_21" data-name="Group 21" transform="translate(50.872 70.454)">
      <g id="Group_19" data-name="Group 19" transform="translate(0 24.567)">
        <path id="Path_5" data-name="Path 5" d="M120.723,138.5v8.237q4.432-.252,8.687-.826V138.3Q125.188,138.553,120.723,138.5Z" transform="translate(-86.306 -129.436)" fill="#f8f9f4"/>
        <path id="Path_6" data-name="Path 6" d="M141.4,137.324v7.506q3.57-.525,6.991-1.242v-7Q144.973,137.057,141.4,137.324Z" transform="translate(-96.797 -128.57)" fill="#f8f9f4"/>
        <path id="Path_7" data-name="Path 7" d="M97.077,137.058v9.09a98.421,98.421,0,0,0,10.148.035v-8.33A90.411,90.411,0,0,1,97.077,137.058Z" transform="translate(-74.311 -128.808)" fill="#f8f9f4"/>
        <path id="Path_8" data-name="Path 8" d="M73.344,131.64v10.015a61.112,61.112,0,0,0,10.19,1.632v-9.2A62.945,62.945,0,0,1,73.344,131.64Z" transform="translate(-62.272 -126.06)" fill="#f8f9f4"/>
        <path id="Path_9" data-name="Path 9" d="M207.441,127.212q1.669-.767,3.237-1.551v-4.816q-1.611.639-3.237,1.245Z" transform="translate(-130.296 -120.584)" fill="#f8f9f4"/>
        <path id="Path_10" data-name="Path 10" d="M197.08,125.7v5.544q1.848-.745,3.6-1.52v-5.257Q198.893,125.11,197.08,125.7Z" transform="translate(-125.04 -122.423)" fill="#f8f9f4"/>
        <path id="Path_11" data-name="Path 11" d="M60.442,135.5V125.364a37.936,37.936,0,0,1-9.57-5.049v11.358A50.343,50.343,0,0,0,60.442,135.5Z" transform="translate(-50.872 -120.315)" fill="#f8f9f4"/>
        <path id="Path_12" data-name="Path 12" d="M158.643,135.13v6.883q2.9-.644,5.672-1.406V134.12C162.454,134.5,160.566,134.84,158.643,135.13Z" transform="translate(-105.542 -127.318)" fill="#f8f9f4"/>
        <path id="Path_13" data-name="Path 13" d="M185.985,129.115v5.946q2.03-.7,3.964-1.456v-5.656Q187.985,128.563,185.985,129.115Z" transform="translate(-119.412 -124.188)" fill="#f8f9f4"/>
        <path id="Path_14" data-name="Path 14" d="M173.205,132.3v6.384q2.452-.705,4.794-1.484v-6.047Q175.632,131.77,173.205,132.3Z" transform="translate(-112.929 -125.81)" fill="#f8f9f4"/>
      </g>
      <g id="Group_20" data-name="Group 20" transform="translate(94.295)">
        <path id="Path_15" data-name="Path 15" d="M457.264,72.551l.007,3.1q1.4.078,2.813.172l-.007-2.978Q458.689,72.69,457.264,72.551Z" transform="translate(-351.32 -71.518)" fill="#f8f9f4"/>
        <path id="Path_16" data-name="Path 16" d="M466.011,73.492l.006,2.913q1.26.092,2.532.2l-.007-2.8Q467.294,73.644,466.011,73.492Z" transform="translate(-355.757 -71.995)" fill="#f8f9f4"/>
        <path id="Path_17" data-name="Path 17" d="M448.23,71.761l.007,3.276c.98.038,1.963.079,2.954.129l-.007-3.157Q449.725,71.876,448.23,71.761Z" transform="translate(-346.737 -71.117)" fill="#f8f9f4"/>
        <path id="Path_18" data-name="Path 18" d="M474.186,74.534l.006,2.724c.748.066,1.5.134,2.252.207l-.006-2.612Q475.327,74.689,474.186,74.534Z" transform="translate(-359.904 -72.524)" fill="#f8f9f4"/>
        <path id="Path_19" data-name="Path 19" d="M438.91,71.14l.008,3.444c1.026.021,2.055.045,3.094.079L442,71.336Q440.474,71.228,438.91,71.14Z" transform="translate(-342.01 -70.802)" fill="#f8f9f4"/>
        <path id="Path_20" data-name="Path 20" d="M419.477,70.483l0,3.754q1.676-.03,3.376-.036l0-3.653Q421.182,70.5,419.477,70.483Z" transform="translate(-332.152 -70.469)" fill="#f8f9f4"/>
        <path id="Path_21" data-name="Path 21" d="M429.366,70.708l0,3.6c1.061,0,2.134.014,3.211.03l-.008-3.494Q430.986,70.764,429.366,70.708Z" transform="translate(-337.168 -70.583)" fill="#f8f9f4"/>
        <path id="Path_22" data-name="Path 22" d="M481.794,75.642l.006,2.538c.7.072,1.4.142,2.11.221l-.006-2.422Q482.865,75.807,481.794,75.642Z" transform="translate(-363.764 -73.086)" fill="#f8f9f4"/>
        <path id="Path_23" data-name="Path 23" d="M409.3,70.469l0,3.893q1.744-.067,3.517-.109l0-3.8Q411.078,70.449,409.3,70.469Z" transform="translate(-326.991 -70.454)" fill="#f8f9f4"/>
        <path id="Path_24" data-name="Path 24" d="M514.5,82l0,1.552,1.155.191,0-1.465C515.275,82.188,514.891,82.1,514.5,82Z" transform="translate(-380.354 -76.313)" fill="#f8f9f4"/>
        <path id="Path_25" data-name="Path 25" d="M519.882,83.318l0,1.344c.334.058.674.124,1.01.183l0-1.269Q520.4,83.447,519.882,83.318Z" transform="translate(-383.085 -76.98)" fill="#f8f9f4"/>
        <path id="Path_26" data-name="Path 26" d="M508.783,80.694l0,1.75c.441.067.878.131,1.32.2l0-1.653C509.669,80.893,509.23,80.793,508.783,80.694Z" transform="translate(-377.455 -75.649)" fill="#f8f9f4"/>
        <path id="Path_27" data-name="Path 27" d="M502.684,79.394l0,1.942c.5.071,1.007.151,1.509.225l0-1.85Q503.449,79.551,502.684,79.394Z" transform="translate(-374.361 -74.989)" fill="#f8f9f4"/>
        <path id="Path_28" data-name="Path 28" d="M489.114,76.836l.005,2.345c.656.076,1.309.149,1.969.231l-.005-2.228Q490.114,77.008,489.114,76.836Z" transform="translate(-367.477 -73.692)" fill="#f8f9f4"/>
        <path id="Path_29" data-name="Path 29" d="M496.149,78.1l0,2.145q.859.112,1.723.23l-.005-2.041Q497.024,78.271,496.149,78.1Z" transform="translate(-371.046 -74.335)" fill="#f8f9f4"/>
        <path id="Path_30" data-name="Path 30" d="M366.888,72.693l0,4.315c1.3-.165,2.613-.318,3.942-.464l0-4.259Q368.871,72.469,366.888,72.693Z" transform="translate(-305.474 -71.384)" fill="#f8f9f4"/>
        <path id="Path_31" data-name="Path 31" d="M281.195,91.247l.01,4.418c1.14-.388,2.32-.774,3.527-1.159l0-4.446Q282.965,90.633,281.195,91.247Z" transform="translate(-262.004 -80.4)" fill="#f8f9f4"/>
        <path id="Path_32" data-name="Path 32" d="M291.4,87.894l0,4.454c1.235-.383,2.5-.765,3.8-1.141l-.005-4.471Q293.3,87.292,291.4,87.894Z" transform="translate(-267.181 -78.714)" fill="#f8f9f4"/>
        <path id="Path_33" data-name="Path 33" d="M312.883,82.007l0,4.492q1.862-.472,3.8-.926l0-4.491Q314.788,81.523,312.883,82.007Z" transform="translate(-278.079 -75.846)" fill="#f8f9f4"/>
        <path id="Path_34" data-name="Path 34" d="M302.14,84.787l0,4.48q1.858-.523,3.8-1.032l0-4.488Q304.044,84.244,302.14,84.787Z" transform="translate(-272.629 -77.197)" fill="#f8f9f4"/>
        <path id="Path_35" data-name="Path 35" d="M251.84,102.585l.01,4.325q1.53-.67,3.232-1.377l-.01-4.338Q253.457,101.873,251.84,102.585Z" transform="translate(-247.113 -86.049)" fill="#f8f9f4"/>
        <path id="Path_36" data-name="Path 36" d="M271.028,94.825l.01,4.385q1.7-.63,3.514-1.266l-.01-4.409Q272.788,94.16,271.028,94.825Z" transform="translate(-256.847 -82.163)" fill="#f8f9f4"/>
        <path id="Path_37" data-name="Path 37" d="M261.435,98.609l.01,4.348q1.55-.625,3.232-1.266l-.01-4.372Q263.053,97.946,261.435,98.609Z" transform="translate(-251.981 -84.082)" fill="#f8f9f4"/>
        <path id="Path_38" data-name="Path 38" d="M345.687,75.461l0,4.436c1.25-.218,2.512-.431,3.8-.634l0-4.4Q347.6,75.143,345.687,75.461Z" transform="translate(-294.72 -72.692)" fill="#f8f9f4"/>
        <path id="Path_39" data-name="Path 39" d="M245.489,109.692l-.01-4.323q-1.615.729-3.232,1.5l.01,4.323C243.244,110.717,244.328,110.214,245.489,109.692Z" transform="translate(-242.247 -88.166)" fill="#f8f9f4"/>
        <path id="Path_40" data-name="Path 40" d="M377.925,71.722l0,4.232q1.81-.187,3.657-.351l0-4.164Q379.766,71.562,377.925,71.722Z" transform="translate(-311.073 -70.954)" fill="#f8f9f4"/>
        <path id="Path_41" data-name="Path 41" d="M323.625,79.517l0,4.49q1.934-.44,3.939-.856l0-4.477Q325.6,79.073,323.625,79.517Z" transform="translate(-283.528 -74.624)" fill="#f8f9f4"/>
        <path id="Path_42" data-name="Path 42" d="M388.385,71.047l0,4.135q1.81-.148,3.658-.269l0-4.058Q390.228,70.935,388.385,71.047Z" transform="translate(-316.379 -70.658)" fill="#f8f9f4"/>
        <path id="Path_43" data-name="Path 43" d="M334.66,77.319l0,4.471q1.939-.389,3.938-.754l0-4.445Q336.637,76.933,334.66,77.319Z" transform="translate(-289.126 -73.567)" fill="#f8f9f4"/>
        <path id="Path_44" data-name="Path 44" d="M398.843,70.632l0,4.021q1.812-.109,3.657-.191l0-3.93Q400.686,70.566,398.843,70.632Z" transform="translate(-321.685 -70.494)" fill="#f8f9f4"/>
        <path id="Path_45" data-name="Path 45" d="M356.431,73.943l0,4.385q1.8-.272,3.656-.52l0-4.34Q358.269,73.688,356.431,73.943Z" transform="translate(-300.17 -71.983)" fill="#f8f9f4"/>
      </g>
    </g>
    <g id="Group_22" data-name="Group 22" transform="translate(203.61 129.676)">
      <path id="Path_46" data-name="Path 46" d="M360.86,200.263v-9.248h1.94v9.248Z" transform="translate(-360.86 -190.833)" fill="#f8f9f4"/>
      <path id="Path_47" data-name="Path 47" d="M377.4,191.015v9.248h-1.872l-4.8-6.158v6.158h-1.68v-9.248h1.747l4.927,6.295v-6.295Z" transform="translate(-365.013 -190.833)" fill="#f8f9f4"/>
      <path id="Path_48" data-name="Path 48" d="M388.751,191.015h7.876v1.441h-2.954v7.807H391.7v-7.807h-2.951Z" transform="translate(-375.008 -190.833)" fill="#f8f9f4"/>
      <path id="Path_49" data-name="Path 49" d="M413.567,200.263H407.6v-9.248h5.8v1.441h-3.826v2.33h2.8v1.441h-2.8v2.594h3.994Z" transform="translate(-384.572 -190.833)" fill="#f8f9f4"/>
      <path id="Path_50" data-name="Path 50" d="M428.2,200.4l-2.479-4.119h-.876v3.979h-1.969v-9.248h2.692c2.539,0,3.69,1.093,3.69,2.538a2.619,2.619,0,0,1-1.652,2.274l2.818,4.436Zm-2.548-5.45c1.122,0,1.677-.626,1.677-1.3,0-.7-.512-1.3-1.677-1.3h-.807v2.606Z" transform="translate(-392.321 -190.833)" fill="#f8f9f4"/>
      <path id="Path_51" data-name="Path 51" d="M448.929,191.015v9.248h-1.872l-4.8-6.158v6.158h-1.679v-9.248h1.753l4.922,6.295v-6.295Z" transform="translate(-401.299 -190.833)" fill="#f8f9f4"/>
      <path id="Path_52" data-name="Path 52" d="M467.763,200.263H461.8v-9.248H467.6v1.441h-3.826v2.33h2.8v1.441h-2.8v2.594h3.994Z" transform="translate(-412.065 -190.833)" fill="#f8f9f4"/>
      <path id="Path_53" data-name="Path 53" d="M475.561,191.015h7.876v1.441h-2.955v7.807h-1.968v-7.807h-2.953Z" transform="translate(-419.045 -190.833)" fill="#f8f9f4"/>
      <path id="Path_54" data-name="Path 54" d="M493.9,197.612v-1.094h3.549V192.9h1.235v3.62h3.535v1.094h-3.535v3.606h-1.235v-3.606Z" transform="translate(-428.351 -191.788)" fill="#f8f9f4"/>
      <path id="Path_55" data-name="Path 55" d="M517.138,198.814c.748,0,1.427-.361,1.427-1,0-.748-.847-1.164-1.846-1.788-.886-.556-2.148-1.236-2.148-2.884a2.706,2.706,0,0,1,2.9-2.5,5.687,5.687,0,0,1,2.661.554l-.555,1.318a3.77,3.77,0,0,0-1.651-.429c-.65,0-1.372.208-1.372.816,0,.777.889,1.151,1.79,1.748.846.556,2.288,1.444,2.288,2.774,0,1.8-1.695,2.829-3.522,2.829a5.462,5.462,0,0,1-2.8-.65l.553-1.3A4.813,4.813,0,0,0,517.138,198.814Z" transform="translate(-438.701 -190.646)" fill="#f8f9f4"/>
      <path id="Path_56" data-name="Path 56" d="M539.435,195.456a4.749,4.749,0,0,1-4.884,4.8,4.658,4.658,0,0,1-4.878-4.8,4.769,4.769,0,0,1,4.878-4.81A4.634,4.634,0,0,1,539.435,195.456Zm-7.7,0c0,1.846,1.082,3.37,2.812,3.37s2.817-1.538,2.817-3.37-1.081-3.383-2.817-3.383S531.739,193.544,531.739,195.456Z" transform="translate(-446.495 -190.646)" fill="#f8f9f4"/>
      <path id="Path_57" data-name="Path 57" d="M552.634,200.263v-9.248h5.519v1.441H554.6v2.33H557.1v1.441H554.6v4.036Z" transform="translate(-458.142 -190.833)" fill="#f8f9f4"/>
      <path id="Path_58" data-name="Path 58" d="M565.215,191.015h7.874v1.441h-2.953v7.807h-1.968v-7.807h-2.952Z" transform="translate(-464.525 -190.833)" fill="#f8f9f4"/>
      <path id="Path_59" data-name="Path 59" d="M586.731,200.346h-1.2l-3.039-9.331h1.943l2,6.322,1.331-3.66-.859-2.661h1.955l1.9,6.126,2.092-6.126h1.707l-3.413,9.331h-1.207l-1.51-4.646Z" transform="translate(-473.287 -190.833)" fill="#f8f9f4"/>
      <path id="Path_60" data-name="Path 60" d="M607.636,200.231h-1.76l3.773-9.278h1.344l3.411,9.278h-2.026l-.748-2.079h-3.2Zm2.44-6.421-1.164,3.049h2.261Z" transform="translate(-485.151 -190.802)" fill="#f8f9f4"/>
      <path id="Path_61" data-name="Path 61" d="M631.4,200.4l-2.483-4.119h-.872v3.979h-1.972v-9.248h2.691c2.538,0,3.69,1.093,3.69,2.538a2.624,2.624,0,0,1-1.649,2.274l2.814,4.436Zm-2.551-5.45c1.121,0,1.677-.626,1.677-1.3,0-.7-.513-1.3-1.677-1.3h-.8v2.606Z" transform="translate(-495.398 -190.833)" fill="#f8f9f4"/>
      <path id="Path_62" data-name="Path 62" d="M649.855,200.263H643.9v-9.248h5.793v1.441h-3.828v2.33h2.8v1.441h-2.8v2.594h3.994Z" transform="translate(-504.438 -190.833)" fill="#f8f9f4"/>
    </g>
    <g id="Group_23" data-name="Group 23" transform="translate(152.183 95.64)">
      <rect id="Rectangle_40" data-name="Rectangle 40" width="8.667" height="29.283" transform="translate(47.922 0.205)" fill="#f8f9f4"/>
      <path id="Path_63" data-name="Path 63" d="M410.327,128.712v-7.143l-29.753.006.034,29.4h29.719V143.3H389.242V128.712Z" transform="translate(-319.433 -121.569)" fill="#f8f9f4"/>
      <path id="Path_64" data-name="Path 64" d="M604.3,143.332V121.642h-8.67l.036,29.368h29.72v-7.677Z" transform="translate(-428.527 -121.606)" fill="#f8f9f4"/>
      <path id="Path_65" data-name="Path 65" d="M552.168,139.538v-6.677H534.4v-3.913h21.085v-7.379H525.672v29.4h29.816v-7.456H534.4v-3.978Z" transform="translate(-393.038 -121.569)" fill="#f8f9f4"/>
      <path id="Path_66" data-name="Path 66" d="M256.488,121.569v29.488h8.687V128.712h9.107v22.345h8.67V128.712h8.34v22.345h8.674V121.576Z" transform="translate(-256.486 -121.569)" fill="#f8f9f4"/>
      <path id="Path_67" data-name="Path 67" d="M472.981,121.642V132.7H456.962V121.642h-8.673v29.452h8.673V139.887h16.019v11.207h8.668V121.642Z" transform="translate(-353.783 -121.606)" fill="#f8f9f4"/>
    </g>
  </g>
</svg>